<svg width="17" height="15" viewBox="0 0 17 15" fill="none" xmlns="http://www.w3.org/2000/svg">
<path d="M7.74 14.625C7.53833 14.5556 7.36111 14.4444 7.20833 14.2917L5.77083 12.9792C4.29861 11.6319 2.96889 10.2953 1.78167 8.96917C0.594444 7.64306 0.000555556 6.18111 0 4.58333C0 3.27778 0.4375 2.1875 1.3125 1.3125C2.1875 0.4375 3.27778 0 4.58333 0C5.31944 0 6.01389 0.156111 6.66667 0.468333C7.31944 0.780555 7.875 1.20778 8.33333 1.75C8.79167 1.20833 9.34722 0.781389 10 0.469167C10.6528 0.156944 11.3472 0.000555556 12.0833 0C13.3889 0 14.4792 0.4375 15.3542 1.3125C16.2292 2.1875 16.6667 3.27778 16.6667 4.58333C16.6667 6.18056 16.0764 7.64583 14.8958 8.97917C13.7153 10.3125 12.375 11.6528 10.875 13L9.45833 14.2917C9.30556 14.4444 9.12861 14.5556 8.9275 14.625C8.72639 14.6944 8.52833 14.7292 8.33333 14.7292C8.13833 14.7292 7.94056 14.6944 7.74 14.625Z" fill="#FF6F41"/>
</svg>
