<svg width="16" height="16" viewBox="0 0 16 16" fill="none" xmlns="http://www.w3.org/2000/svg">
<path d="M2 15.575C1.45 15.575 0.979333 15.3794 0.588 14.988C0.196666 14.5967 0.000666667 14.1257 0 13.575V11.575C0 11.2917 0.0960001 11.0543 0.288 10.863C0.48 10.6717 0.717333 10.5757 1 10.575C1.28267 10.5743 1.52033 10.6704 1.713 10.863C1.90567 11.0557 2.00133 11.293 2 11.575V13.575H14V11.575C14 11.2917 14.096 11.0543 14.288 10.863C14.48 10.6717 14.7173 10.5757 15 10.575C15.2827 10.5743 15.5203 10.6704 15.713 10.863C15.9057 11.0557 16.0013 11.293 16 11.575V13.575C16 14.125 15.8043 14.596 15.413 14.988C15.0217 15.38 14.5507 15.5757 14 15.575H2ZM7 3.42502L5.125 5.30002C4.925 5.50002 4.68767 5.59602 4.413 5.58802C4.13833 5.58002 3.90067 5.47568 3.7 5.27502C3.51667 5.07502 3.42067 4.84168 3.412 4.57502C3.40333 4.30835 3.49933 4.07502 3.7 3.87502L7.3 0.275015C7.4 0.175015 7.50833 0.104348 7.625 0.0630151C7.74167 0.0216818 7.86667 0.000682052 8 1.53848e-05C8.13333 -0.000651282 8.25833 0.0203484 8.375 0.0630151C8.49167 0.105682 8.6 0.176348 8.7 0.275015L12.3 3.87502C12.5 4.07502 12.596 4.30835 12.588 4.57502C12.58 4.84168 12.484 5.07502 12.3 5.27502C12.1 5.47502 11.8627 5.57935 11.588 5.58802C11.3133 5.59668 11.0757 5.50068 10.875 5.30002L9 3.42502V10.575C9 10.8583 8.904 11.096 8.712 11.288C8.52 11.48 8.28267 11.5757 8 11.575C7.71733 11.5743 7.48 11.4783 7.288 11.287C7.096 11.0957 7 10.8583 7 10.575V3.42502Z" fill="#1C1C1C"/>
</svg>
