<svg width="85" height="25" viewBox="0 0 85 25" fill="none" xmlns="http://www.w3.org/2000/svg">
<rect x="0.5" y="0.5" width="84" height="24" rx="12" fill="#F1F1F1"/>
<rect x="0.5" y="0.5" width="84" height="24" rx="12" stroke="#A1A1A1"/>
<path d="M21.9166 16.3002L20.2666 15.7335L21.5666 12.1502L22.9833 15.0668C23.1388 15.3668 23.0722 15.6724 22.7833 15.9835C22.4944 16.2946 22.2055 16.4002 21.9166 16.3002ZM17.7333 15.6668L18.4499 9.4335C18.4722 9.26683 18.5471 9.15283 18.6746 9.0915C18.8022 9.03016 18.9551 9.0275 19.1333 9.0835L20.7999 9.70016C20.9555 9.76683 21.0582 9.86683 21.1079 10.0002C21.1577 10.1335 21.1551 10.2779 21.0999 10.4335L19.2166 15.6668H17.7333ZM12.7999 15.6668L10.9166 10.4335C10.8611 10.2779 10.8584 10.1306 10.9086 9.9915C10.9588 9.85239 11.0615 9.75527 11.2166 9.70016L12.8833 9.0835C13.0388 9.01683 13.1862 9.01416 13.3253 9.0755C13.4644 9.13683 13.5448 9.25616 13.5666 9.4335L14.2666 15.6668H12.7999ZM9.93327 16.3002C9.64439 16.3891 9.38327 16.2806 9.14994 15.9748C8.91661 15.6691 8.87772 15.3664 9.03327 15.0668L10.4666 12.1502L11.7499 15.7335L9.93327 16.3002ZM15.2666 15.6668L14.4666 8.50016C14.4444 8.31127 14.4971 8.15305 14.6246 8.0255C14.7522 7.89794 14.9106 7.83394 15.0999 7.8335H16.8999C17.0888 7.8335 17.2473 7.8975 17.3753 8.0255C17.5033 8.1535 17.5559 8.31172 17.5333 8.50016L16.7333 15.6668H15.2666Z" fill="#A1A1A1"/>
<path d="M29.9688 7.15625V10.1367H32.6211V7.15625H33.6055V10.5742H35.4375V6.22656H36.4629V17.5059H35.4375V11.4766H33.6055V15.0586H28.9434V7.15625H29.9688ZM29.9688 14.1562H32.6211V11.0117H29.9688V14.1562ZM38.9102 5.95312V18.1074H37.8711V5.95312H38.9102ZM50.6133 5.95312V18.1348H49.5332V5.95312H50.6133ZM44.1465 6.89648C45.9512 6.91016 47.25 8.55078 47.25 11.1348C47.25 13.7188 45.9512 15.3594 44.1465 15.3594C42.3281 15.3594 41.043 13.7188 41.043 11.1348C41.043 8.55078 42.3281 6.91016 44.1465 6.89648ZM44.1465 7.85352C42.9297 7.86719 42.082 9.15234 42.082 11.1348C42.082 13.1172 42.9297 14.4023 44.1465 14.4023C45.3633 14.4023 46.2109 13.1172 46.2109 11.1348C46.2109 9.15234 45.3633 7.86719 44.1465 7.85352ZM58.8711 7.22461C58.8574 10.7383 57.6133 13.9512 53.3203 16.0977L52.7051 15.2773C54.9404 14.1562 56.3213 12.7549 57.0801 11.1074L52.9375 11.5039L52.7461 10.5742L57.4082 10.2598C57.627 9.58301 57.7568 8.86523 57.8047 8.11328H53.3613V7.22461H58.8711ZM62.7539 5.95312V18.1074H61.6875V11.7363H58.8301V10.8477H61.6875V5.95312H62.7539ZM74.8262 5.95312V18.1348H73.7598V5.95312H74.8262ZM71.1348 7.08789V11.4082H66.5957V14.2793C68.6123 14.2793 70.4102 14.1904 72.584 13.8418L72.6934 14.7441C70.4512 15.0996 68.6055 15.1816 66.5137 15.1816H65.502V10.5332H70.0547V7.97656H65.4746V7.08789H71.1348Z" fill="#A1A1A1"/>
</svg>
