<svg width="73" height="25" viewBox="0 0 73 25" fill="none" xmlns="http://www.w3.org/2000/svg">
<rect x="0.5" y="0.5" width="72" height="24" rx="12" fill="#F1F1F1"/>
<rect x="0.5" y="0.5" width="72" height="24" rx="12" stroke="#A1A1A1"/>
<path d="M10.783 16.6499C10.3163 16.0499 9.95812 15.3973 9.70834 14.6919C9.45856 13.9866 9.33345 13.2559 9.33301 12.4999C9.33256 11.7439 9.45768 11.0135 9.70834 10.3086C9.95901 9.6037 10.3172 8.95081 10.783 8.34992C11.4275 8.84992 11.933 9.46392 12.2997 10.1919C12.6663 10.9199 12.8497 11.6893 12.8497 12.4999C12.8497 13.3106 12.6663 14.0801 12.2997 14.8086C11.933 15.537 11.4275 16.1508 10.783 16.6499ZM13.7083 18.7666C12.9803 18.4999 12.3163 18.111 11.7163 17.5999C12.483 16.9666 13.083 16.2084 13.5163 15.3253C13.9497 14.4421 14.1663 13.5004 14.1663 12.4999C14.1663 11.4995 13.9497 10.5579 13.5163 9.67525C13.083 8.79259 12.483 8.03414 11.7163 7.39992C12.3163 6.88881 12.9803 6.49992 13.7083 6.23325C14.4363 5.96659 15.2001 5.83325 15.9997 5.83325C16.7992 5.83325 17.5632 5.96659 18.2917 6.23325C19.0201 6.49992 19.6839 6.88881 20.283 7.39992C19.5163 8.03325 18.9163 8.7917 18.483 9.67525C18.0497 10.5588 17.833 11.5004 17.833 12.4999C17.833 13.4995 18.0497 14.4413 18.483 15.3253C18.9163 16.2093 19.5163 16.9675 20.283 17.5999C19.683 18.111 19.019 18.4999 18.291 18.7666C17.563 19.0333 16.7992 19.1666 15.9997 19.1666C15.2001 19.1666 14.4363 19.0333 13.7083 18.7666ZM21.2163 16.6499C20.5719 16.1499 20.0663 15.5361 19.6997 14.8086C19.333 14.081 19.1497 13.3115 19.1497 12.4999C19.1497 11.6884 19.333 10.9188 19.6997 10.1913C20.0663 9.4637 20.5719 8.84992 21.2163 8.34992C21.683 8.94992 22.0415 9.60281 22.2917 10.3086C22.5419 11.0144 22.6668 11.7448 22.6663 12.4999C22.6659 13.255 22.541 13.9857 22.2917 14.6919C22.0423 15.3981 21.6839 16.0508 21.2163 16.6499Z" fill="#A1A1A1"/>
<path d="M34.5488 7.74414C34.5488 9.82227 36.9277 11.6816 39.0469 12.0781L38.5547 12.9805C36.7227 12.5566 34.7881 11.251 34.002 9.45312C33.2158 11.2441 31.2881 12.5498 29.4492 12.9805L28.957 12.0781C31.0625 11.668 33.4277 9.83594 33.4277 7.74414V6.81445H34.5488V7.74414ZM39.6211 15.5645V16.4531H28.4922V15.5645H39.6211ZM51.7207 15.6875V16.6035H40.5918V15.6875H45.582V12.8848H41.6035V12.0234H43.5039V8.03125H41.5762V7.14258H50.6543V8.03125H48.7266V12.0234H50.627V12.8848H46.6348V15.6875H51.7207ZM44.5703 12.0234H47.6738V8.03125H44.5703V12.0234ZM63.8203 15.6465V16.5488H52.6914V15.6465H63.8203ZM58.7891 8.79688C58.7891 10.8066 60.7988 12.3242 63.1094 12.7344L62.6719 13.6094C60.751 13.2197 59.001 12.167 58.2422 10.5742C57.4697 12.167 55.7197 13.2197 53.7988 13.6094L53.375 12.7344C55.6719 12.3242 57.6953 10.8066 57.6953 8.79688H53.7305V7.92188H57.709V6.25391H58.7617V7.92188H62.7539V8.79688H58.7891Z" fill="#A1A1A1"/>
</svg>
